<svg class="bob" font-family="arial" font-size="14" height="384" width="496" xmlns="http://www.w3.org/2000/svg">
<defs>
<marker id="triangle" markerHeight="8" markerWidth="8" orient="auto" refX="4" refY="2" viewBox="0 0 8 4">
<polygon class="fg_fill" points="0,0 0,4 8,2 0,0"/>
</marker>
<marker id="clear_triangle" markerHeight="10" markerWidth="10" orient="auto" refX="1" refY="7" viewBox="0 0 20 14">
<polygon class="bg_fill fg_stroke" points="2,2 2,12 18,7 2,2"/>
</marker>
<marker id="circle" markerHeight="5" markerWidth="5" orient="auto" refX="10" refY="10" viewBox="0 0 20 20">
<circle class="fg_fill" cx="10" cy="10" r="8"/>
</marker>
<marker id="square" markerHeight="5" markerWidth="5" orient="auto" refX="10" refY="10" viewBox="0 0 20 20">
<rect class="fg_fill" height="20" width="20" x="0" y="0"/>
</marker>
<marker id="open_circle" markerHeight="10" markerWidth="10" orient="auto" refX="10" refY="10" viewBox="0 0 20 20">
<circle class="bg_fill fg_stroke" cx="10" cy="10" r="4"/>
</marker>
<marker id="big_open_circle" markerHeight="20" markerWidth="20" orient="auto" refX="20" refY="20" viewBox="0 0 40 40">
<circle class="bg_fill fg_stroke" cx="20" cy="20" r="6"/>
</marker>
</defs>
<style type="text/css">

rect.backdrop {
    fill: white;
}

.fg_fill {
    fill: black;
}


.bg_fill {
    fill: white;
}

.fg_stroke {
    stroke: black;
    stroke-width: 2;
}

.no_fill {
    fill: none;
}

.dashed {
    stroke-dasharray: 5;
}


text{
    fill: black;
}

line, path {
    stroke-linecap: round;
    stroke-linejoin: miter;
    stroke-opacity: 1;
    fill-opacity: 1;
}




tspan.head{
    fill: none;
    stroke: none;
}
    
</style>
<rect class="backdrop" height="384" width="496" x="0" y="0"/>
<g>
<line class="fg_stroke" marker-end="url(#triangle)" x1="20" x2="20" y1="64" y2="52"/>
<line class="fg_stroke" x1="20" x2="20" y1="64" y2="176"/>
</g>
<g>
<line class="fg_stroke" marker-end="url(#triangle)" x1="20" x2="20" y1="192" y2="332"/>
</g>
<g>
<line class="fg_stroke" x1="52" x2="52" y1="8" y2="40"/>
<line class="fg_stroke" x1="52" x2="340" y1="8" y2="8"/>
<line class="fg_stroke" x1="52" x2="52" y1="40" y2="72"/>
<line class="fg_stroke" x1="52" x2="340" y1="40" y2="40"/>
<line class="fg_stroke" x1="52" x2="52" y1="72" y2="280"/>
<line class="fg_stroke" x1="52" x2="340" y1="72" y2="72"/>
<line class="fg_stroke" x1="52" x2="52" y1="280" y2="312"/>
<line class="fg_stroke" x1="52" x2="340" y1="280" y2="280"/>
<line class="fg_stroke" x1="52" x2="52" y1="312" y2="344"/>
<line class="fg_stroke" x1="52" x2="340" y1="312" y2="312"/>
<line class="fg_stroke" x1="52" x2="340" y1="344" y2="344"/>
<line class="fg_stroke" x1="340" x2="340" y1="8" y2="40"/>
<line class="fg_stroke" x1="340" x2="340" y1="40" y2="72"/>
<line class="fg_stroke" x1="340" x2="340" y1="72" y2="280"/>
<line class="fg_stroke" x1="340" x2="340" y1="280" y2="312"/>
<line class="fg_stroke" x1="340" x2="340" y1="312" y2="344"/>
</g>
<g>
<line class="fg_stroke" x1="68" x2="68" y1="88" y2="120"/>
<line class="fg_stroke" x1="68" x2="324" y1="88" y2="88"/>
<line class="fg_stroke" x1="68" x2="68" y1="120" y2="152"/>
<line class="fg_stroke" x1="68" x2="324" y1="120" y2="120"/>
<line class="fg_stroke" x1="68" x2="324" y1="152" y2="152"/>
<line class="fg_stroke" x1="324" x2="324" y1="88" y2="120"/>
<line class="fg_stroke" x1="324" x2="324" y1="120" y2="152"/>
</g>
<g>
<line class="fg_stroke" x1="68" x2="68" y1="184" y2="216"/>
<line class="fg_stroke" x1="68" x2="324" y1="184" y2="184"/>
<line class="fg_stroke" x1="68" x2="68" y1="216" y2="248"/>
<line class="fg_stroke" x1="68" x2="324" y1="216" y2="216"/>
<line class="fg_stroke" x1="68" x2="324" y1="248" y2="248"/>
<line class="fg_stroke" x1="324" x2="324" y1="184" y2="216"/>
<line class="fg_stroke" x1="324" x2="324" y1="216" y2="248"/>
</g>
<g>
<text class="fg_fill" x="1" y="188">
24070
</text>
</g>
<g>
<text class="fg_fill" x="57" y="28">
`FORM`
</text>
</g>
<g>
<text class="fg_fill" x="57" y="60">
`ILBM`
</text>
</g>
<g>
<text class="fg_fill" x="57" y="300">
`BODY`
</text>
</g>
<g>
<text class="fg_fill" x="57" y="332">
0,
</text>
</g>
<g>
<text class="fg_fill" x="65" y="268">
0
</text>
</g>
<g>
<text class="fg_fill" x="81" y="108">
`BMHD`
</text>
</g>
<g>
<text class="fg_fill" x="81" y="140">
320,
</text>
</g>
<g>
<text class="fg_fill" x="81" y="204">
`CMAP`
</text>
</g>
<g>
<text class="fg_fill" x="81" y="236">
0,
</text>
</g>
<g>
<text class="fg_fill" x="81" y="332">
0,
</text>
</g>
<g>
<text class="fg_fill" x="105" y="236">
0,
</text>
</g>
<g>
<text class="fg_fill" x="105" y="332">
0,
</text>
</g>
<g>
<text class="fg_fill" x="121" y="140">
200,
</text>
</g>
<g>
<text class="fg_fill" x="129" y="236">
0;
</text>
</g>
<g>
<text class="fg_fill" x="129" y="332">
…
</text>
</g>
<g>
<text class="fg_fill" x="153" y="236">
32,
</text>
</g>
<g>
<text class="fg_fill" x="161" y="140">
0,
</text>
</g>
<g>
<text class="fg_fill" x="177" y="28">
24070
</text>
</g>
<g>
<text class="fg_fill" x="177" y="108">
20
</text>
</g>
<g>
<text class="fg_fill" x="177" y="204">
21
</text>
</g>
<g>
<text class="fg_fill" x="177" y="300">
24000
</text>
</g>
<g>
<text class="fg_fill" x="185" y="140">
0,
</text>
</g>
<g>
<text class="fg_fill" x="185" y="236">
0,
</text>
</g>
<g>
<text class="fg_fill" x="209" y="140">
3,
</text>
</g>
<g>
<text class="fg_fill" x="209" y="236">
0;
</text>
</g>
<g>
<text class="fg_fill" x="233" y="140">
0,
</text>
</g>
<g>
<text class="fg_fill" x="233" y="236">
64,0,0;
</text>
</g>
<g>
<text class="fg_fill" x="257" y="140">
0,
</text>
</g>
<g>
<text class="fg_fill" x="281" y="140">
…
</text>
</g>
<g>
<text class="fg_fill" x="297" y="236">
…
</text>
</g>
<g>
<text class="fg_fill" x="353" y="28">
FORM
</text>
</g>
<g>
<text class="fg_fill" x="353" y="108">
.BMHD
</text>
</g>
<g>
<text class="fg_fill" x="353" y="204">
.CMAP
</text>
</g>
<g>
<text class="fg_fill" x="353" y="300">
.BODY
</text>
</g>
<g>
<text class="fg_fill" x="409" y="28">
24070
</text>
</g>
<g>
<text class="fg_fill" x="409" y="108">
20
</text>
</g>
<g>
<text class="fg_fill" x="409" y="204">
21
</text>
</g>
<g>
<text class="fg_fill" x="409" y="300">
24000
</text>
</g>
<g>
<text class="fg_fill" x="465" y="28">
IBLM
</text>
</g>
</svg>