<svg class="bob" font-family="arial" font-size="14" height="784" width="496" xmlns="http://www.w3.org/2000/svg">
<defs>
<marker id="triangle" markerHeight="8" markerWidth="8" orient="auto" refX="4" refY="2" viewBox="0 0 8 4">
<polygon class="fg_fill" points="0,0 0,4 8,2 0,0"/>
</marker>
<marker id="clear_triangle" markerHeight="10" markerWidth="10" orient="auto" refX="1" refY="7" viewBox="0 0 20 14">
<polygon class="bg_fill fg_stroke" points="2,2 2,12 18,7 2,2"/>
</marker>
<marker id="circle" markerHeight="5" markerWidth="5" orient="auto" refX="10" refY="10" viewBox="0 0 20 20">
<circle class="fg_fill" cx="10" cy="10" r="8"/>
</marker>
<marker id="square" markerHeight="5" markerWidth="5" orient="auto" refX="10" refY="10" viewBox="0 0 20 20">
<rect class="fg_fill" height="20" width="20" x="0" y="0"/>
</marker>
<marker id="open_circle" markerHeight="10" markerWidth="10" orient="auto" refX="10" refY="10" viewBox="0 0 20 20">
<circle class="bg_fill fg_stroke" cx="10" cy="10" r="4"/>
</marker>
<marker id="big_open_circle" markerHeight="20" markerWidth="20" orient="auto" refX="20" refY="20" viewBox="0 0 40 40">
<circle class="bg_fill fg_stroke" cx="20" cy="20" r="6"/>
</marker>
</defs>
<style type="text/css">

rect.backdrop {
    fill: white;
}

.fg_fill {
    fill: black;
}


.bg_fill {
    fill: white;
}

.fg_stroke {
    stroke: black;
    stroke-width: 2;
}

.no_fill {
    fill: none;
}

.dashed {
    stroke-dasharray: 5;
}


text{
    fill: black;
}

line, path {
    stroke-linecap: round;
    stroke-linejoin: miter;
    stroke-opacity: 1;
    fill-opacity: 1;
}




tspan.head{
    fill: none;
    stroke: none;
}
    
</style>
<rect class="backdrop" height="784" width="496" x="0" y="0"/>
<g>
<line class="fg_stroke" x1="4" x2="4" y1="8" y2="40"/>
<line class="fg_stroke" x1="4" x2="340" y1="8" y2="8"/>
<line class="fg_stroke" x1="4" x2="4" y1="40" y2="744"/>
<line class="fg_stroke" x1="4" x2="340" y1="40" y2="40"/>
<line class="fg_stroke" x1="4" x2="340" y1="744" y2="744"/>
<line class="fg_stroke" x1="340" x2="340" y1="8" y2="40"/>
<line class="fg_stroke" x1="340" x2="340" y1="40" y2="744"/>
</g>
<g>
<line class="fg_stroke" x1="28" x2="28" y1="72" y2="104"/>
<line class="fg_stroke" x1="28" x2="316" y1="72" y2="72"/>
<line class="fg_stroke" x1="28" x2="28" y1="104" y2="136"/>
<line class="fg_stroke" x1="28" x2="316" y1="104" y2="104"/>
<line class="fg_stroke" x1="28" x2="28" y1="136" y2="344"/>
<line class="fg_stroke" x1="28" x2="316" y1="136" y2="136"/>
<line class="fg_stroke" x1="28" x2="316" y1="344" y2="344"/>
<line class="fg_stroke" x1="316" x2="316" y1="72" y2="104"/>
<line class="fg_stroke" x1="316" x2="316" y1="104" y2="136"/>
<line class="fg_stroke" x1="316" x2="316" y1="136" y2="344"/>
</g>
<g>
<line class="fg_stroke" x1="28" x2="28" y1="376" y2="408"/>
<line class="fg_stroke" x1="28" x2="316" y1="376" y2="376"/>
<line class="fg_stroke" x1="28" x2="28" y1="408" y2="440"/>
<line class="fg_stroke" x1="28" x2="316" y1="408" y2="408"/>
<line class="fg_stroke" x1="28" x2="28" y1="440" y2="536"/>
<line class="fg_stroke" x1="28" x2="316" y1="440" y2="440"/>
<line class="fg_stroke" x1="28" x2="316" y1="536" y2="536"/>
<line class="fg_stroke" x1="316" x2="316" y1="376" y2="408"/>
<line class="fg_stroke" x1="316" x2="316" y1="408" y2="440"/>
<line class="fg_stroke" x1="316" x2="316" y1="440" y2="536"/>
</g>
<g>
<line class="fg_stroke" x1="28" x2="28" y1="568" y2="600"/>
<line class="fg_stroke" x1="28" x2="316" y1="568" y2="568"/>
<line class="fg_stroke" x1="28" x2="28" y1="600" y2="632"/>
<line class="fg_stroke" x1="28" x2="316" y1="600" y2="600"/>
<line class="fg_stroke" x1="28" x2="28" y1="632" y2="728"/>
<line class="fg_stroke" x1="28" x2="316" y1="632" y2="632"/>
<line class="fg_stroke" x1="28" x2="316" y1="728" y2="728"/>
<line class="fg_stroke" x1="316" x2="316" y1="568" y2="600"/>
<line class="fg_stroke" x1="316" x2="316" y1="600" y2="632"/>
<line class="fg_stroke" x1="316" x2="316" y1="632" y2="728"/>
</g>
<g>
<line class="fg_stroke" x1="44" x2="44" y1="152" y2="184"/>
<line class="fg_stroke" x1="44" x2="300" y1="152" y2="152"/>
<line class="fg_stroke" x1="44" x2="44" y1="184" y2="216"/>
<line class="fg_stroke" x1="44" x2="300" y1="184" y2="184"/>
<line class="fg_stroke" x1="44" x2="300" y1="216" y2="216"/>
<line class="fg_stroke" x1="300" x2="300" y1="152" y2="184"/>
<line class="fg_stroke" x1="300" x2="300" y1="184" y2="216"/>
</g>
<g>
<line class="fg_stroke" x1="44" x2="44" y1="248" y2="280"/>
<line class="fg_stroke" x1="44" x2="300" y1="248" y2="248"/>
<line class="fg_stroke" x1="44" x2="44" y1="280" y2="312"/>
<line class="fg_stroke" x1="44" x2="300" y1="280" y2="280"/>
<line class="fg_stroke" x1="44" x2="300" y1="312" y2="312"/>
<line class="fg_stroke" x1="300" x2="300" y1="248" y2="280"/>
<line class="fg_stroke" x1="300" x2="300" y1="280" y2="312"/>
</g>
<g>
<line class="fg_stroke" x1="52" x2="52" y1="456" y2="488"/>
<line class="fg_stroke" x1="52" x2="292" y1="456" y2="456"/>
<line class="fg_stroke" x1="52" x2="52" y1="488" y2="520"/>
<line class="fg_stroke" x1="52" x2="292" y1="488" y2="488"/>
<line class="fg_stroke" x1="52" x2="292" y1="520" y2="520"/>
<line class="fg_stroke" x1="292" x2="292" y1="456" y2="488"/>
<line class="fg_stroke" x1="292" x2="292" y1="488" y2="520"/>
</g>
<g>
<line class="fg_stroke" x1="52" x2="52" y1="648" y2="680"/>
<line class="fg_stroke" x1="52" x2="292" y1="648" y2="648"/>
<line class="fg_stroke" x1="52" x2="52" y1="680" y2="712"/>
<line class="fg_stroke" x1="52" x2="292" y1="680" y2="680"/>
<line class="fg_stroke" x1="52" x2="292" y1="712" y2="712"/>
<line class="fg_stroke" x1="292" x2="292" y1="648" y2="680"/>
<line class="fg_stroke" x1="292" x2="292" y1="680" y2="712"/>
</g>
<g>
<text class="fg_fill" x="9" y="28">
`LIST`
</text>
</g>
<g>
<text class="fg_fill" x="9" y="60">
`AAAA`
</text>
</g>
<g>
<text class="fg_fill" x="33" y="92">
`PROP`
</text>
</g>
<g>
<text class="fg_fill" x="33" y="124">
`ILBM`
</text>
</g>
<g>
<text class="fg_fill" x="33" y="396">
`FORM`
</text>
</g>
<g>
<text class="fg_fill" x="33" y="428">
`ILBM`
</text>
</g>
<g>
<text class="fg_fill" x="33" y="588">
`FORM`
</text>
</g>
<g>
<text class="fg_fill" x="33" y="620">
`ILBM`
</text>
</g>
<g>
<text class="fg_fill" x="41" y="332">
0
</text>
</g>
<g>
<text class="fg_fill" x="57" y="172">
`BMHD`
</text>
</g>
<g>
<text class="fg_fill" x="57" y="204">
320,
</text>
</g>
<g>
<text class="fg_fill" x="57" y="268">
`CMAP`
</text>
</g>
<g>
<text class="fg_fill" x="57" y="300">
0,
</text>
</g>
<g>
<text class="fg_fill" x="57" y="476">
`BODY`
</text>
</g>
<g>
<text class="fg_fill" x="57" y="508">
0,
</text>
</g>
<g>
<text class="fg_fill" x="57" y="668">
`BODY`
</text>
</g>
<g>
<text class="fg_fill" x="57" y="700">
0,
</text>
</g>
<g>
<text class="fg_fill" x="81" y="300">
0,
</text>
</g>
<g>
<text class="fg_fill" x="81" y="508">
0,
</text>
</g>
<g>
<text class="fg_fill" x="81" y="700">
0,
</text>
</g>
<g>
<text class="fg_fill" x="97" y="204">
200,
</text>
</g>
<g>
<text class="fg_fill" x="105" y="300">
0;
</text>
</g>
<g>
<text class="fg_fill" x="105" y="508">
0,
</text>
</g>
<g>
<text class="fg_fill" x="105" y="700">
0,
</text>
</g>
<g>
<text class="fg_fill" x="129" y="300">
32,
</text>
</g>
<g>
<text class="fg_fill" x="129" y="508">
…
</text>
</g>
<g>
<text class="fg_fill" x="129" y="700">
…
</text>
</g>
<g>
<text class="fg_fill" x="137" y="204">
0,
</text>
</g>
<g>
<text class="fg_fill" x="153" y="28">
48114
</text>
</g>
<g>
<text class="fg_fill" x="153" y="92">
62
</text>
</g>
<g>
<text class="fg_fill" x="153" y="172">
20
</text>
</g>
<g>
<text class="fg_fill" x="153" y="268">
21
</text>
</g>
<g>
<text class="fg_fill" x="153" y="396">
24012
</text>
</g>
<g>
<text class="fg_fill" x="153" y="588">
24012
</text>
</g>
<g>
<text class="fg_fill" x="161" y="204">
0,
</text>
</g>
<g>
<text class="fg_fill" x="161" y="300">
0,
</text>
</g>
<g>
<text class="fg_fill" x="185" y="204">
3,
</text>
</g>
<g>
<text class="fg_fill" x="185" y="300">
0;
</text>
</g>
<g>
<text class="fg_fill" x="209" y="204">
0,
</text>
</g>
<g>
<text class="fg_fill" x="209" y="300">
64,0,0;
</text>
</g>
<g>
<text class="fg_fill" x="217" y="476">
24000
</text>
</g>
<g>
<text class="fg_fill" x="217" y="668">
24000
</text>
</g>
<g>
<text class="fg_fill" x="233" y="204">
0,
</text>
</g>
<g>
<text class="fg_fill" x="257" y="204">
…
</text>
</g>
<g>
<text class="fg_fill" x="273" y="300">
…
</text>
</g>
<g>
<text class="fg_fill" x="353" y="28">
LIST
</text>
</g>
<g>
<text class="fg_fill" x="353" y="60">
.PROP
</text>
</g>
<g>
<text class="fg_fill" x="353" y="172">
..BMHD
</text>
</g>
<g>
<text class="fg_fill" x="353" y="268">
..CMAP
</text>
</g>
<g>
<text class="fg_fill" x="353" y="396">
.FORM
</text>
</g>
<g>
<text class="fg_fill" x="353" y="476">
..BODY
</text>
</g>
<g>
<text class="fg_fill" x="353" y="588">
.FORM
</text>
</g>
<g>
<text class="fg_fill" x="353" y="668">
..BODY
</text>
</g>
<g>
<text class="fg_fill" x="401" y="28">
48114
</text>
</g>
<g>
<text class="fg_fill" x="409" y="60">
62
</text>
</g>
<g>
<text class="fg_fill" x="409" y="396">
24012
</text>
</g>
<g>
<text class="fg_fill" x="409" y="588">
24012
</text>
</g>
<g>
<text class="fg_fill" x="417" y="172">
20
</text>
</g>
<g>
<text class="fg_fill" x="417" y="268">
21
</text>
</g>
<g>
<text class="fg_fill" x="417" y="476">
24000
</text>
</g>
<g>
<text class="fg_fill" x="417" y="668">
24000
</text>
</g>
<g>
<text class="fg_fill" x="441" y="60">
ILBM
</text>
</g>
<g>
<text class="fg_fill" x="457" y="28">
AAAA
</text>
</g>
<g>
<text class="fg_fill" x="465" y="396">
ILBM
</text>
</g>
<g>
<text class="fg_fill" x="465" y="588">
ILBM
</text>
</g>
</svg>