<svg class="bob" font-family="arial" font-size="14" height="176" width="288" xmlns="http://www.w3.org/2000/svg">
<defs>
<marker id="triangle" markerHeight="8" markerWidth="8" orient="auto" refX="4" refY="2" viewBox="0 0 8 4">
<polygon class="fg_fill" points="0,0 0,4 8,2 0,0"/>
</marker>
<marker id="clear_triangle" markerHeight="10" markerWidth="10" orient="auto" refX="1" refY="7" viewBox="0 0 20 14">
<polygon class="bg_fill fg_stroke" points="2,2 2,12 18,7 2,2"/>
</marker>
<marker id="circle" markerHeight="5" markerWidth="5" orient="auto" refX="10" refY="10" viewBox="0 0 20 20">
<circle class="fg_fill" cx="10" cy="10" r="8"/>
</marker>
<marker id="square" markerHeight="5" markerWidth="5" orient="auto" refX="10" refY="10" viewBox="0 0 20 20">
<rect class="fg_fill" height="20" width="20" x="0" y="0"/>
</marker>
<marker id="open_circle" markerHeight="10" markerWidth="10" orient="auto" refX="10" refY="10" viewBox="0 0 20 20">
<circle class="bg_fill fg_stroke" cx="10" cy="10" r="4"/>
</marker>
<marker id="big_open_circle" markerHeight="20" markerWidth="20" orient="auto" refX="20" refY="20" viewBox="0 0 40 40">
<circle class="bg_fill fg_stroke" cx="20" cy="20" r="6"/>
</marker>
</defs>
<style type="text/css">

rect.backdrop {
    fill: white;
}

.fg_fill {
    fill: black;
}


.bg_fill {
    fill: white;
}

.fg_stroke {
    stroke: black;
    stroke-width: 2;
}

.no_fill {
    fill: none;
}

.dashed {
    stroke-dasharray: 5;
}


text{
    fill: black;
}

line, path {
    stroke-linecap: round;
    stroke-linejoin: miter;
    stroke-opacity: 1;
    fill-opacity: 1;
}




tspan.head{
    fill: none;
    stroke: none;
}
    
</style>
<rect class="backdrop" height="176" width="288" x="0" y="0"/>
<g>
<line class="fg_stroke" x1="68" x2="68" y1="8" y2="40"/>
<line class="fg_stroke" x1="68" x2="188" y1="8" y2="8"/>
<line class="fg_stroke" x1="68" x2="68" y1="40" y2="72"/>
<line class="fg_stroke" x1="68" x2="188" y1="40" y2="40"/>
<line class="fg_stroke" x1="68" x2="68" y1="72" y2="136"/>
<line class="fg_stroke" x1="68" x2="188" y1="72" y2="72"/>
<line class="fg_stroke" x1="68" x2="188" y1="136" y2="136"/>
<line class="fg_stroke" x1="188" x2="188" y1="8" y2="40"/>
<line class="fg_stroke" x1="188" x2="188" y1="40" y2="72"/>
<line class="fg_stroke" x1="188" x2="188" y1="72" y2="136"/>
</g>
<g>
<line class="fg_stroke" marker-end="url(#triangle)" x1="212" x2="212" y1="96" y2="84"/>
<line class="fg_stroke" marker-end="url(#triangle)" x1="212" x2="212" y1="96" y2="124"/>
</g>
<g>
<text class="fg_fill" x="1" y="28">
ckID:
</text>
</g>
<g>
<text class="fg_fill" x="1" y="60">
ckSize:
</text>
</g>
<g>
<text class="fg_fill" x="1" y="92">
ckData:
</text>
</g>
<g>
<text class="fg_fill" x="81" y="92">
0,
</text>
</g>
<g>
<text class="fg_fill" x="81" y="108">
0,
</text>
</g>
<g>
<text class="fg_fill" x="81" y="124">
0,
</text>
</g>
<g>
<text class="fg_fill" x="105" y="28">
`CMAP`
</text>
</g>
<g>
<text class="fg_fill" x="105" y="92">
0,
</text>
</g>
<g>
<text class="fg_fill" x="105" y="108">
0,
</text>
</g>
<g>
<text class="fg_fill" x="105" y="124">
0,
</text>
</g>
<g>
<text class="fg_fill" x="121" y="60">
12
</text>
</g>
<g>
<text class="fg_fill" x="129" y="92">
0,
</text>
</g>
<g>
<text class="fg_fill" x="129" y="108">
64,
</text>
</g>
<g>
<text class="fg_fill" x="129" y="124">
64,
</text>
</g>
<g>
<text class="fg_fill" x="153" y="92">
32
</text>
</g>
<g>
<text class="fg_fill" x="161" y="108">
0
</text>
</g>
<g>
<text class="fg_fill" x="161" y="124">
0
</text>
</g>
<g>
<text class="fg_fill" x="225" y="108">
12
</text>
</g>
<g>
<text class="fg_fill" x="249" y="108">
bytes
</text>
</g>
</svg>